<svg width="10" height="20" viewBox="0 0 10 20" fill="none" xmlns="http://www.w3.org/2000/svg">
<path d="M9.63537 0.837799L7.32099 0.833984C4.72086 0.833984 3.04054 2.60489 3.04054 5.34584V7.42611H0.713524C0.512443 7.42611 0.349609 7.59357 0.349609 7.80013V10.8142C0.349609 11.0208 0.512628 11.188 0.713524 11.188H3.04054V18.7935C3.04054 19 3.20337 19.1673 3.40445 19.1673H6.44054C6.64162 19.1673 6.80445 18.9999 6.80445 18.7935V11.188H9.52527C9.72635 11.188 9.88919 11.0208 9.88919 10.8142L9.8903 7.80013C9.8903 7.70095 9.85187 7.60597 9.78372 7.53578C9.71558 7.46559 9.62275 7.42611 9.5262 7.42611H6.80445V5.66264C6.80445 4.81505 7.00108 4.38476 8.07593 4.38476L9.635 4.38419C9.8359 4.38419 9.99873 4.21673 9.99873 4.01037V1.21163C9.99873 1.00545 9.83608 0.83818 9.63537 0.837799Z" fill="white"/>
</svg>
