<svg width="32" height="23" viewBox="0 0 32 23" fill="none" xmlns="http://www.w3.org/2000/svg">
<path fill-rule="evenodd" clip-rule="evenodd" d="M28.5204 0.685299C29.891 1.05444 30.9718 2.135 31.3407 3.50584C32.0262 6.00974 31.9999 11.2289 31.9999 11.2289C31.9999 11.2289 31.9999 16.4215 31.3409 18.9257C30.9718 20.2963 29.8912 21.3771 28.5204 21.746C26.0162 22.4052 15.9999 22.4052 15.9999 22.4052C15.9999 22.4052 6.00974 22.4052 3.47948 21.7199C2.10863 21.3507 1.02807 20.2699 0.658933 18.8993C0 16.4215 0 11.2026 0 11.2026C0 11.2026 0 6.00974 0.658933 3.50584C1.02783 2.13524 2.135 1.02807 3.47923 0.659176C5.98337 0 15.9997 0 15.9997 0C15.9997 0 26.0162 0 28.5204 0.685299ZM21.1399 11.2026L12.8105 16V6.40525L21.1399 11.2026Z" fill="#787A80"/>
</svg>
