<svg width="28" height="22" viewBox="0 0 28 22" fill="none" xmlns="http://www.w3.org/2000/svg">
<path d="M28 2.79931C26.9694 3.23656 25.8637 3.53309 24.7019 3.66548C25.8881 2.98527 26.7962 1.90637 27.2266 0.624726C26.1138 1.25464 24.8855 1.71204 23.5768 1.95999C22.5287 0.889457 21.038 0.222656 19.3845 0.222656C16.2124 0.222656 13.6404 2.68541 13.6404 5.72113C13.6404 6.15167 13.6911 6.57218 13.7891 6.9743C9.01601 6.74474 4.78357 4.55509 1.95085 1.22783C1.45568 2.03872 1.17399 2.98357 1.17399 3.99216C1.17399 5.90039 2.18881 7.5841 3.72854 8.56917C2.78719 8.53903 1.90185 8.29108 1.12677 7.87893V7.94762C1.12677 10.6114 3.10741 12.8346 5.73365 13.3406C5.25248 13.4645 4.74509 13.5332 4.22018 13.5332C3.84927 13.5332 3.49058 13.498 3.13889 13.431C3.87023 15.6173 5.99087 17.2072 8.50341 17.2508C6.53851 18.7251 4.06097 19.6013 1.36999 19.6013C0.906341 19.6013 0.449648 19.5745 0 19.5259C2.54229 21.089 5.56048 22.0004 8.80437 22.0004C19.3706 22.0004 25.1463 13.6204 25.1463 6.35275L25.1271 5.64074C26.2556 4.87002 27.2319 3.90169 28 2.79931Z" fill="#FF5A30"/>
</svg>
