<svg width="116" height="116" viewBox="0 0 116 116" fill="none" xmlns="http://www.w3.org/2000/svg">
<path d="M55.564 58.992C55.564 64.3587 54.5367 68.4833 52.482 71.366C50.458 74.218 47.652 75.644 44.064 75.644C40.476 75.644 37.6547 74.218 35.6 71.366C33.576 68.4833 32.564 64.3587 32.564 58.992C32.564 56.324 32.8247 53.9627 33.346 51.908C33.898 49.8533 34.68 48.1207 35.692 46.71C36.704 45.2993 37.9153 44.226 39.326 43.49C40.7367 42.754 42.316 42.386 44.064 42.386C47.652 42.386 50.458 43.8273 52.482 46.71C54.5367 49.562 55.564 53.656 55.564 58.992ZM48.572 58.992C48.572 57.3973 48.4953 55.956 48.342 54.668C48.1887 53.3493 47.9433 52.2147 47.606 51.264C47.2687 50.3133 46.8087 49.5773 46.226 49.056C45.6433 48.5347 44.9227 48.274 44.064 48.274C43.2053 48.274 42.4847 48.5347 41.902 49.056C41.35 49.5773 40.89 50.3133 40.522 51.264C40.1847 52.2147 39.9393 53.3493 39.786 54.668C39.6327 55.956 39.556 57.3973 39.556 58.992C39.556 60.5867 39.6327 62.0433 39.786 63.362C39.9393 64.6807 40.1847 65.8153 40.522 66.766C40.89 67.7167 41.35 68.4527 41.902 68.974C42.4847 69.4953 43.2053 69.756 44.064 69.756C44.9227 69.756 45.6433 69.4953 46.226 68.974C46.8087 68.4527 47.2687 67.7167 47.606 66.766C47.9433 65.8153 48.1887 64.6807 48.342 63.362C48.4953 62.0433 48.572 60.5867 48.572 58.992ZM60.3645 49.746C61.2539 49.378 62.1739 48.964 63.1245 48.504C64.1059 48.0133 65.0565 47.492 65.9765 46.94C66.8965 46.3573 67.7705 45.7593 68.5985 45.146C69.4572 44.502 70.2239 43.8273 70.8985 43.122H75.6825V75H68.8285V52.046C67.9085 52.6593 66.8812 53.2267 65.7465 53.748C64.6119 54.2387 63.5079 54.668 62.4345 55.036L60.3645 49.746Z" fill="#FF5A30"/>
<path opacity="0.06" d="M116 58C116 90.0325 90.0325 116 58 116C25.9675 116 0 90.0325 0 58C0 25.9675 25.9675 0 58 0C90.0325 0 116 25.9675 116 58Z" fill="#FF5A30"/>
<path opacity="0.12" d="M100 58C100 81.196 81.196 100 58 100C34.804 100 16 81.196 16 58C16 34.804 34.804 16 58 16C81.196 16 100 34.804 100 58Z" fill="#FF5A30"/>
</svg>
