<svg width="116" height="116" viewBox="0 0 116 116" fill="none" xmlns="http://www.w3.org/2000/svg">
<path d="M55.564 58.992C55.564 64.3587 54.5367 68.4833 52.482 71.366C50.458 74.218 47.652 75.644 44.064 75.644C40.476 75.644 37.6547 74.218 35.6 71.366C33.576 68.4833 32.564 64.3587 32.564 58.992C32.564 56.324 32.8247 53.9627 33.346 51.908C33.898 49.8533 34.68 48.1207 35.692 46.71C36.704 45.2993 37.9153 44.226 39.326 43.49C40.7367 42.754 42.316 42.386 44.064 42.386C47.652 42.386 50.458 43.8273 52.482 46.71C54.5367 49.562 55.564 53.656 55.564 58.992ZM48.572 58.992C48.572 57.3973 48.4953 55.956 48.342 54.668C48.1887 53.3493 47.9433 52.2147 47.606 51.264C47.2687 50.3133 46.8087 49.5773 46.226 49.056C45.6433 48.5347 44.9227 48.274 44.064 48.274C43.2053 48.274 42.4847 48.5347 41.902 49.056C41.35 49.5773 40.89 50.3133 40.522 51.264C40.1847 52.2147 39.9393 53.3493 39.786 54.668C39.6327 55.956 39.556 57.3973 39.556 58.992C39.556 60.5867 39.6327 62.0433 39.786 63.362C39.9393 64.6807 40.1847 65.8153 40.522 66.766C40.89 67.7167 41.35 68.4527 41.902 68.974C42.4847 69.4953 43.2053 69.756 44.064 69.756C44.9227 69.756 45.6433 69.4953 46.226 68.974C46.8087 68.4527 47.2687 67.7167 47.606 66.766C47.9433 65.8153 48.1887 64.6807 48.342 63.362C48.4953 62.0433 48.572 60.5867 48.572 58.992ZM67.6325 75.69C66.8045 75.69 65.9305 75.6287 65.0105 75.506C64.0905 75.414 63.2012 75.276 62.3425 75.092C61.4839 74.908 60.7019 74.7087 59.9965 74.494C59.2912 74.2793 58.7392 74.08 58.3405 73.896L59.6745 68.192C60.4719 68.5293 61.4839 68.8973 62.7105 69.296C63.9679 69.664 65.5165 69.848 67.3565 69.848C69.4725 69.848 71.0212 69.4493 72.0025 68.652C72.9839 67.8547 73.4745 66.7813 73.4745 65.432C73.4745 64.604 73.2905 63.914 72.9225 63.362C72.5852 62.7793 72.1099 62.3193 71.4965 61.982C70.8832 61.614 70.1472 61.3687 69.2885 61.246C68.4605 61.0927 67.5712 61.016 66.6205 61.016H63.9525V55.496H66.9885C67.6632 55.496 68.3072 55.4347 68.9205 55.312C69.5645 55.1893 70.1319 54.99 70.6225 54.714C71.1132 54.4073 71.4965 54.0087 71.7725 53.518C72.0792 52.9967 72.2325 52.3527 72.2325 51.586C72.2325 51.0033 72.1099 50.4973 71.8645 50.068C71.6192 49.6387 71.2972 49.286 70.8985 49.01C70.5305 48.734 70.0859 48.5347 69.5645 48.412C69.0739 48.2587 68.5679 48.182 68.0465 48.182C66.7279 48.182 65.5012 48.3813 64.3665 48.78C63.2625 49.1787 62.2505 49.6693 61.3305 50.252L58.8925 45.238C59.3832 44.9313 59.9505 44.6093 60.5945 44.272C61.2692 43.9347 62.0052 43.628 62.8025 43.352C63.5999 43.076 64.4432 42.846 65.3325 42.662C66.2525 42.478 67.2185 42.386 68.2305 42.386C70.1012 42.386 71.7112 42.616 73.0605 43.076C74.4405 43.5053 75.5752 44.134 76.4645 44.962C77.3539 45.7593 78.0132 46.71 78.4425 47.814C78.8719 48.8873 79.0865 50.068 79.0865 51.356C79.0865 52.6133 78.7339 53.84 78.0285 55.036C77.3232 56.2013 76.3725 57.0907 75.1765 57.704C76.8325 58.3787 78.1052 59.3907 78.9945 60.74C79.9145 62.0587 80.3745 63.6533 80.3745 65.524C80.3745 66.996 80.1292 68.3607 79.6385 69.618C79.1479 70.8447 78.3812 71.918 77.3385 72.838C76.2959 73.7273 74.9619 74.4327 73.3365 74.954C71.7419 75.4447 69.8405 75.69 67.6325 75.69Z" fill="#FF5A30"/>
<circle opacity="0.06" cx="58" cy="58" r="58" fill="#FF5A30"/>
<circle opacity="0.12" cx="58" cy="58" r="42" fill="#FF5A30"/>
</svg>
